{
	"asset":{
		"generator":"Khronos glTF Blender I/O v4.1.63",
		"version":"2.0"
	},
	"scene":0,
	"scenes":[
		{
			"name":"Scene",
			"nodes":[
				0
			]
		}
	],
	"nodes":[
		{
			"mesh":0,
			"name":"bunny",
			"rotation":[
				0.7071068286895752,
				0,
				0,
				0.7071068286895752
			]
		}
	],
	"materials":[
		{
			"doubleSided":true,
			"name":"Material.001",
			"pbrMetallicRoughness":{
				"baseColorTexture":{
					"index":0
				},
				"metallicFactor":0,
				"roughnessFactor":0.5
			}
		}
	],
	"meshes":[
		{
			"name":"bunny",
			"primitives":[
				{
					"attributes":{
						"POSITION":0,
						"NORMAL":1,
						"TEXCOORD_0":2
					},
					"indices":3,
					"material":0
				}
			]
		}
	],
	"textures":[
		{
			"sampler":0,
			"source":0
		}
	],
	"images":[
		{
			"mimeType":"image/png",
			"name":"uvChecker",
			"uri":"uvChecker.png"
		}
	],
	"accessors":[
		{
			"bufferView":0,
			"componentType":5126,
			"count":72378,
			"max":[
				0.6578999757766724,
				1.641800045967102,
				0.6894999742507935
			],
			"min":[
				-0.9559000134468079,
				0.020999999716877937,
				-0.5429999828338623
			],
			"type":"VEC3"
		},
		{
			"bufferView":1,
			"componentType":5126,
			"count":72378,
			"type":"VEC3"
		},
		{
			"bufferView":2,
			"componentType":5126,
			"count":72378,
			"type":"VEC2"
		},
		{
			"bufferView":3,
			"componentType":5125,
			"count":432138,
			"type":"SCALAR"
		}
	],
	"bufferViews":[
		{
			"buffer":0,
			"byteLength":868536,
			"byteOffset":0,
			"target":34962
		},
		{
			"buffer":0,
			"byteLength":868536,
			"byteOffset":868536,
			"target":34962
		},
		{
			"buffer":0,
			"byteLength":579024,
			"byteOffset":1737072,
			"target":34962
		},
		{
			"buffer":0,
			"byteLength":1728552,
			"byteOffset":2316096,
			"target":34963
		}
	],
	"samplers":[
		{
			"magFilter":9729,
			"minFilter":9987
		}
	],
	"buffers":[
		{
			"byteLength":4044648,
			"uri":"bunny.bin"
		}
	]
}
