# Blender 4.1.1
# www.blender.org
mtllib player.mtl
o 立方体
v -1.000000 0.000000 0.500000
v -1.000000 4.000000 0.500000
v -1.000000 0.000000 -0.500000
v -1.000000 4.000000 -0.500000
v 1.000000 0.000000 0.500000
v 1.000000 4.000000 0.500000
v 1.000000 0.000000 -0.500000
v 1.000000 4.000000 -0.500000
v 0.000000 2.500000 -0.250000
v 0.097545 2.509607 -0.250000
v 0.191342 2.538060 -0.250000
v 0.277785 2.584265 -0.250000
v 0.353553 2.646447 -0.250000
v 0.415735 2.722215 -0.250000
v 0.461940 2.808658 -0.250000
v 0.490393 2.902455 -0.250000
v 0.500000 3.000000 -0.250000
v 0.490393 3.097545 -0.250000
v 0.461940 3.191342 -0.250000
v 0.415735 3.277785 -0.250000
v 0.353553 3.353553 -0.250000
v 0.277785 3.415735 -0.250000
v 0.191342 3.461940 -0.250000
v 0.097545 3.490393 -0.250000
v 0.000000 3.500000 -0.250000
v -0.097545 3.490393 -0.250000
v -0.191342 3.461940 -0.250000
v -0.277785 3.415735 -0.250000
v -0.353553 3.353553 -0.250000
v -0.415735 3.277785 -0.250000
v -0.461940 3.191342 -0.250000
v -0.490393 3.097545 -0.250000
v -0.500000 3.000000 -0.250000
v -0.490393 2.902455 -0.250000
v -0.461940 2.808658 -0.250000
v -0.415735 2.722215 -0.250000
v -0.353553 2.646447 -0.250000
v -0.277785 2.584265 -0.250000
v -0.191342 2.538060 -0.250000
v -0.097545 2.509607 -0.250000
v 0.000000 3.000000 -1.750000
vn -1.0000 -0.0000 -0.0000
vn -0.0000 -0.0000 -1.0000
vn 1.0000 -0.0000 -0.0000
vn -0.0000 -0.0000 1.0000
vn -0.0000 -1.0000 -0.0000
vn -0.0000 1.0000 -0.0000
vn 0.0930 -0.9446 -0.3149
vn 0.2755 -0.9083 -0.3149
vn 0.4474 -0.8371 -0.3149
vn 0.6021 -0.7337 -0.3149
vn 0.7337 -0.6021 -0.3149
vn 0.8371 -0.4474 -0.3149
vn 0.9083 -0.2755 -0.3149
vn 0.9446 -0.0930 -0.3149
vn 0.9446 0.0930 -0.3149
vn 0.9083 0.2755 -0.3149
vn 0.8371 0.4474 -0.3149
vn 0.7337 0.6021 -0.3149
vn 0.6021 0.7337 -0.3149
vn 0.4474 0.8371 -0.3149
vn 0.2755 0.9083 -0.3149
vn 0.0930 0.9446 -0.3149
vn -0.0930 0.9446 -0.3149
vn -0.2755 0.9083 -0.3149
vn -0.4474 0.8371 -0.3149
vn -0.6021 0.7337 -0.3149
vn -0.7337 0.6021 -0.3149
vn -0.8371 0.4474 -0.3149
vn -0.9083 0.2755 -0.3149
vn -0.9446 0.0930 -0.3149
vn -0.9446 -0.0930 -0.3149
vn -0.9083 -0.2755 -0.3149
vn -0.8371 -0.4474 -0.3149
vn -0.7337 -0.6021 -0.3149
vn -0.6021 -0.7337 -0.3149
vn -0.4474 -0.8371 -0.3149
vn -0.2755 -0.9083 -0.3149
vn -0.0930 -0.9446 -0.3149
vt 0.625000 0.000000
vt 0.375000 0.250000
vt 0.375000 0.000000
vt 0.625000 0.250000
vt 0.375000 0.500000
vt 0.625000 0.500000
vt 0.375000 0.750000
vt 0.625000 0.750000
vt 0.375000 1.000000
vt 0.125000 0.750000
vt 0.125000 0.500000
vt 0.875000 0.500000
vt 0.250000 0.490000
vt 0.250000 0.250000
vt 0.296822 0.485388
vt 0.341844 0.471731
vt 0.383337 0.449553
vt 0.419706 0.419706
vt 0.449553 0.383337
vt 0.471731 0.341844
vt 0.485388 0.296822
vt 0.490000 0.250000
vt 0.485388 0.203178
vt 0.471731 0.158156
vt 0.449553 0.116663
vt 0.419706 0.080294
vt 0.383337 0.050447
vt 0.341844 0.028269
vt 0.296822 0.014612
vt 0.250000 0.010000
vt 0.203178 0.014612
vt 0.158156 0.028269
vt 0.116663 0.050447
vt 0.080294 0.080294
vt 0.050447 0.116663
vt 0.028269 0.158156
vt 0.014612 0.203178
vt 0.010000 0.250000
vt 0.014612 0.296822
vt 0.028269 0.341844
vt 0.050447 0.383337
vt 0.080294 0.419706
vt 0.116663 0.449553
vt 0.158156 0.471731
vt 0.616663 0.449553
vt 0.658156 0.471731
vt 0.616663 0.050447
vt 0.203178 0.485388
vt 0.625000 1.000000
vt 0.875000 0.750000
vt 0.703178 0.485388
vt 0.750000 0.490000
vt 0.750000 0.010000
vt 0.796822 0.485388
vt 0.796822 0.014612
vt 0.841844 0.471731
vt 0.883337 0.449553
vt 0.841844 0.028269
vt 0.919706 0.419706
vt 0.919706 0.080294
vt 0.949553 0.383337
vt 0.949553 0.116663
vt 0.971731 0.341844
vt 0.985388 0.296822
vt 0.971731 0.158156
vt 0.990000 0.250000
vt 0.985388 0.203178
vt 0.883337 0.050447
vt 0.703178 0.014612
vt 0.658156 0.028269
vt 0.580294 0.080294
vt 0.580294 0.419706
vt 0.550447 0.116663
vt 0.550447 0.383337
vt 0.528269 0.158156
vt 0.514612 0.203178
vt 0.528269 0.341844
vt 0.510000 0.250000
vt 0.514612 0.296822
s 0
f 2/1/1 3/2/1 1/3/1
f 4/4/2 7/5/2 3/2/2
f 8/6/3 5/7/3 7/5/3
f 6/8/4 1/9/4 5/7/4
f 7/5/5 1/10/5 3/11/5
f 4/12/6 6/8/6 8/6/6
f 9/13/7 41/14/7 10/15/7
f 10/15/8 41/14/8 11/16/8
f 11/16/9 41/14/9 12/17/9
f 12/17/10 41/14/10 13/18/10
f 13/18/11 41/14/11 14/19/11
f 14/19/12 41/14/12 15/20/12
f 15/20/13 41/14/13 16/21/13
f 16/21/14 41/14/14 17/22/14
f 17/22/15 41/14/15 18/23/15
f 18/23/16 41/14/16 19/24/16
f 19/24/17 41/14/17 20/25/17
f 20/25/18 41/14/18 21/26/18
f 21/26/19 41/14/19 22/27/19
f 22/27/20 41/14/20 23/28/20
f 23/28/21 41/14/21 24/29/21
f 24/29/22 41/14/22 25/30/22
f 25/30/23 41/14/23 26/31/23
f 26/31/24 41/14/24 27/32/24
f 27/32/25 41/14/25 28/33/25
f 28/33/26 41/14/26 29/34/26
f 29/34/27 41/14/27 30/35/27
f 30/35/28 41/14/28 31/36/28
f 31/36/29 41/14/29 32/37/29
f 32/37/30 41/14/30 33/38/30
f 33/38/31 41/14/31 34/39/31
f 34/39/32 41/14/32 35/40/32
f 35/40/33 41/14/33 36/41/33
f 36/41/34 41/14/34 37/42/34
f 37/42/35 41/14/35 38/43/35
f 38/43/36 41/14/36 39/44/36
f 38/45/4 39/46/4 28/47/4
f 39/44/37 41/14/37 40/48/37
f 40/48/38 41/14/38 9/13/38
f 2/1/1 4/4/1 3/2/1
f 4/4/2 8/6/2 7/5/2
f 8/6/3 6/8/3 5/7/3
f 6/8/4 2/49/4 1/9/4
f 7/5/5 5/7/5 1/10/5
f 4/12/6 2/50/6 6/8/6
f 40/51/4 9/52/4 25/53/4
f 9/52/4 10/54/4 24/55/4
f 10/54/4 11/56/4 24/55/4
f 11/56/4 12/57/4 23/58/4
f 24/55/4 11/56/4 23/58/4
f 12/57/4 13/59/4 21/60/4
f 13/59/4 14/61/4 20/62/4
f 14/61/4 15/63/4 20/62/4
f 15/63/4 16/64/4 19/65/4
f 20/62/4 15/63/4 19/65/4
f 16/64/4 17/66/4 18/67/4
f 18/67/4 19/65/4 16/64/4
f 20/62/4 21/60/4 13/59/4
f 21/60/4 22/68/4 12/57/4
f 22/68/4 23/58/4 12/57/4
f 24/55/4 25/53/4 9/52/4
f 25/53/4 26/69/4 40/51/4
f 26/69/4 27/70/4 40/51/4
f 27/70/4 28/47/4 39/46/4
f 40/51/4 27/70/4 39/46/4
f 28/47/4 29/71/4 37/72/4
f 29/71/4 30/73/4 36/74/4
f 30/73/4 31/75/4 36/74/4
f 31/75/4 32/76/4 35/77/4
f 36/74/4 31/75/4 35/77/4
f 32/76/4 33/78/4 34/79/4
f 34/79/4 35/77/4 32/76/4
f 36/74/4 37/72/4 29/71/4
f 37/72/4 38/45/4 28/47/4
