# Blender 4.3.2
# www.blender.org
mtllib enemy.mtl
o ICO球
v -0.000000 -0.625079 -0.000000
v 0.261465 -0.279547 0.663394
v -0.099869 -0.279548 1.073405
v -0.323187 -0.279545 0.000000
v 0.261465 -0.279547 -0.663394
v 0.099869 0.279548 1.073405
v -0.261465 0.279547 0.663394
v -0.261465 0.279547 -0.663394
v -0.058048 0.286414 -1.527038
v 0.323187 0.279545 -0.000000
v -0.058701 -0.531726 0.630927
v 0.153684 -0.531726 0.389931
v 0.094984 -0.328627 1.020864
v 0.307369 -0.328626 -0.000000
v 0.153684 -0.531726 -0.389931
v -0.189964 -0.531724 -0.000000
v -0.248667 -0.328626 0.630929
v -0.058701 -0.531726 -0.630927
v -0.248667 -0.328626 -0.630929
v -0.064508 -0.289281 -1.531565
v 0.343650 -0.000000 0.389932
v 0.343650 0.000000 -0.389932
v 0.000000 -0.000000 1.261865
v 0.212387 -0.000000 1.020870
v -0.343650 -0.000000 0.389932
v -0.212387 -0.000000 1.020870
v -0.003560 -0.590017 -1.531554
v -0.343650 0.000000 -0.389932
v 0.058048 -0.286414 -1.527038
v 0.064508 0.289281 -1.531565
v 0.248667 0.328626 0.630929
v -0.094984 0.328627 1.020864
v -0.307369 0.328626 0.000000
v 0.003560 0.590017 -1.531554
v 0.248667 0.328626 -0.630929
v 0.034770 0.531726 0.543746
v 0.112521 0.531724 0.170031
v -0.091031 0.531726 0.400997
v -0.091031 0.531726 -0.060935
v 0.034770 0.531726 -0.203684
v -0.120538 -0.228195 -1.063754
v -0.064074 -0.288564 -1.063753
v -0.092815 -0.322756 -0.997589
v -0.125364 -0.287957 -0.997590
v 0.120538 0.228195 -1.063754
v 0.064074 0.288564 -1.063753
v 0.092815 0.322756 -0.997589
v 0.125364 0.287957 -0.997590
v 0.054506 -0.318432 -1.031778
v 0.115525 -0.271131 -1.020865
v 0.123509 -0.320218 -0.959614
v 0.103878 -0.359401 -0.925265
v 0.071697 -0.359401 -0.961780
v -0.191847 0.057496 -1.020869
v -0.189014 -0.058071 -1.031783
v -0.217884 -0.049793 -0.961787
v -0.232276 0.000000 -0.925271
v -0.220796 0.047897 -0.959620
v 0.191847 -0.057496 -1.020869
v 0.189014 0.058071 -1.031783
v 0.217884 0.049793 -0.961787
v 0.232276 0.000000 -0.925271
v 0.220796 -0.047897 -0.959620
v 0.059762 0.058071 -1.178445
v 0.053777 -0.057496 -1.177536
v -0.003298 -0.118442 -1.178442
v -0.059762 -0.058071 -1.178445
v -0.053777 0.057496 -1.177536
v 0.003298 0.118442 -1.178442
v -0.054506 0.318432 -1.031778
v -0.115525 0.271131 -1.020865
v -0.123509 0.320218 -0.959614
v -0.103878 0.359401 -0.925265
v -0.071697 0.359401 -0.961780
v 0.477874 -0.004774 -0.640055
v 0.457411 0.274771 -0.250123
v -0.384714 0.004774 0.146226
v -0.454145 -0.274771 -0.243706
v 0.388000 -0.004774 0.139809
v -0.474608 0.004774 -0.633639
v -0.438327 0.333400 -0.243706
v 0.441592 -0.333400 -0.250123
v 0.189964 0.531724 0.000000
v 0.058701 0.531726 -0.630927
v -0.153684 0.531726 -0.389931
v -0.153684 0.531726 0.389931
v 0.058701 0.531726 0.630927
v 0.112522 0.617269 -0.186457
v 0.034771 0.693835 -0.560172
v -0.091031 0.693834 -0.417423
v -0.091031 0.617270 0.044509
v 0.034771 0.606663 0.187258
vn 0.1821 -0.9701 0.1605
vn 0.8736 -0.4772 0.0958
vn -0.4392 -0.8937 0.0914
vn -0.4392 -0.8937 -0.0914
vn 0.1821 -0.9701 -0.1605
vn 0.9751 -0.2058 0.0827
vn 0.0746 -0.5756 0.8143
vn -0.9730 -0.2089 0.0987
vn -0.7387 -0.1750 -0.6510
vn 0.7247 -0.2589 -0.6386
vn 0.9752 -0.0882 0.2029
vn -0.7387 -0.1750 0.6510
vn -0.9897 0.0867 0.1141
vn 0.7387 0.1750 -0.6510
vn 0.9704 0.1324 -0.2019
vn 0.6953 0.6503 0.3060
vn -0.7486 0.6076 0.2652
vn -0.8736 0.4772 -0.0958
vn 0.6953 0.6503 -0.3060
vn 0.8822 0.4660 -0.0679
vn 0.7220 0.6753 -0.1502
vn 0.7486 -0.6076 -0.2652
vn 0.0367 0.0074 -0.9993
vn -0.3587 0.8783 -0.3161
vn -0.7974 0.6034 -0.0000
vn -0.8736 0.4772 0.0958
vn -0.3587 0.8783 0.3161
vn 0.0875 0.8690 0.4871
vn 0.7220 0.6753 0.1502
vn 0.8822 0.4660 0.0679
vn 0.9730 0.2089 -0.0987
vn -0.7486 0.6076 -0.2652
vn -0.0746 0.5756 -0.8143
vn 0.0875 0.8690 -0.4871
vn 0.9752 -0.0882 -0.2029
vn -0.7247 0.2589 -0.6386
vn -0.9751 0.2058 -0.0827
vn 0.9931 0.0262 0.1144
vn -0.9751 0.2058 0.0827
vn -0.8766 0.3132 0.3653
vn -0.7247 0.2589 0.6386
vn -0.0746 0.5756 0.8143
vn 0.8945 0.2973 0.3338
vn 0.9704 0.1324 0.2019
vn 0.9730 0.2089 0.0987
vn 0.8945 0.2973 -0.3338
vn 0.3587 -0.8783 -0.3161
vn -0.8945 -0.2973 -0.3338
vn -0.9704 -0.1324 -0.2019
vn -0.8766 0.3132 -0.3653
vn -0.9730 -0.2089 -0.0987
vn -0.9752 0.0882 0.2029
vn -0.9704 -0.1324 0.2019
vn -0.8945 -0.2973 0.3338
vn 0.7387 0.1750 0.6510
vn 0.7247 -0.2589 0.6386
vn 0.8766 -0.3132 0.3653
vn 0.9360 -0.3072 0.1718
vn -0.8120 -0.3961 0.4286
vn 0.9751 -0.2058 -0.0827
vn 0.8766 -0.3132 -0.3653
vn -0.9752 0.0882 -0.2029
vn 0.0746 -0.5756 -0.8143
vn -0.0875 -0.8690 -0.4871
vn -0.7220 -0.6753 -0.1502
vn -0.8822 -0.4660 -0.0679
vn -0.8822 -0.4660 0.0679
vn -0.7220 -0.6753 0.1502
vn -0.6953 -0.6503 0.3060
vn 0.8736 -0.4772 -0.0958
vn 0.7974 -0.6034 -0.0000
vn 0.5192 -0.8547 -0.0000
vn -0.0875 -0.8690 0.4871
vn 0.3587 -0.8783 0.3161
vn 0.7486 -0.6076 0.2652
vn -0.6067 -0.5674 -0.5568
vn 0.6067 0.5674 -0.5568
vn 0.5424 -0.6908 -0.4780
vn -0.9393 -0.0204 -0.3424
vn 0.9393 0.0204 -0.3424
vn -0.9999 0.0112 0.0061
vn -0.5424 0.6908 -0.4780
vn 0.4244 0.3970 -0.8138
vn -0.4244 -0.3970 -0.8138
vn -0.4706 0.4293 -0.7709
vn -0.7495 0.0440 -0.6605
vn 0.7495 -0.0440 -0.6605
vn 0.4706 -0.4293 -0.7709
vn -0.6953 -0.6503 -0.3060
vn 0.6603 -0.6245 0.4171
vn 0.9471 0.1919 0.2570
vn -0.6603 0.6245 0.4171
vn -0.9471 -0.1919 0.2570
vn 0.9999 -0.0112 0.0061
vn 0.8049 0.4147 -0.4244
vn 0.8123 0.3958 0.4284
vn -0.8052 -0.4144 -0.4242
vn -0.7487 0.5195 -0.4117
vn -0.9401 0.2987 0.1643
vn 0.7480 -0.5202 -0.4122
vn -0.4251 -0.8239 -0.3747
vn -0.0000 1.0000 -0.0000
vn 0.1824 0.9700 0.1608
vn 0.7031 0.6959 0.1463
vn -1.0000 -0.0000 -0.0000
vn 0.7464 -0.6471 -0.1553
vn -0.1798 0.9565 0.2295
vn -0.9931 -0.0262 0.1145
vn -0.0367 -0.0074 -0.9993
vn 0.9897 -0.0866 0.1141
vn 0.8077 -0.3914 0.4409
vn -0.9464 -0.2840 0.1539
vn -0.6066 -0.5674 -0.5568
vn 0.6066 0.5674 -0.5568
vn 0.5814 -0.6318 -0.5126
vn 0.5074 -0.6389 -0.5782
vn -0.9029 -0.0174 -0.4295
vn -0.9238 0.0135 -0.3826
vn 0.9029 0.0174 -0.4295
vn 0.9238 -0.0135 -0.3826
vn -0.9976 0.0513 0.0458
vn -0.5814 0.6318 -0.5126
vn -0.5074 0.6389 -0.5782
vn 0.9454 -0.1957 0.2607
vn 0.6643 0.6213 0.4157
vn -0.9454 0.1957 0.2607
vn -0.6643 -0.6213 0.4157
vn 0.9976 -0.0513 0.0458
vn 0.9420 0.2941 0.1614
vn -0.8071 0.3921 0.4414
vn 0.0421 0.9984 0.0371
vn 0.7032 0.6914 0.1659
vn 0.7379 -0.6144 -0.2794
vn -0.2273 0.9530 0.2003
vt 0.000079 0.001146
vt 0.000188 0.001083
vt 0.000188 0.001209
vt 0.000297 0.001020
vt 0.000188 0.000957
vt 0.000297 0.000894
vt 0.000079 0.000138
vt 0.000188 0.000075
vt 0.000188 0.000201
vt 0.000079 0.000390
vt 0.000188 0.000327
vt 0.000188 0.000453
vt 0.000037 0.000780
vt 0.000188 0.000579
vt 0.000188 0.000705
vt 0.000406 0.000957
vt 0.000297 0.001272
vt 0.000297 0.001146
vt 0.000406 0.001209
vt 0.000297 0.000264
vt 0.000297 0.000138
vt 0.000406 0.000201
vt 0.000317 0.000505
vt 0.000383 0.000466
vt 0.000383 0.000543
vt 0.000387 0.000694
vt 0.000316 0.000653
vt 0.000387 0.000612
vt 0.000406 0.001083
vt 0.000406 0.001335
vt 0.000406 0.000327
vt 0.000429 0.000692
vt 0.000429 0.000615
vt 0.000495 0.000654
vt 0.000406 0.000831
vt 0.000422 0.000715
vt 0.000515 0.000768
vt 0.000515 0.001146
vt 0.000515 0.001020
vt 0.000624 0.001083
vt 0.000515 0.001398
vt 0.000515 0.001272
vt 0.000624 0.001335
vt 0.000515 0.000390
vt 0.000515 0.000264
vt 0.000624 0.000327
vt 0.000515 0.000664
vt 0.000624 0.000705
vt 0.000515 0.000894
vt 0.000624 0.000831
vt 0.000280 0.000652
vt 0.000297 0.000768
vt 0.000425 0.000546
vt 0.000532 0.000526
vt 0.000624 0.000453
vt 0.000624 0.000579
vt 0.000624 0.000201
vt 0.000515 0.000138
vt 0.000624 0.001209
vt 0.000624 0.000957
vt 0.000532 0.000507
vt 0.000449 0.000581
vt 0.000515 0.000542
vt 0.000515 0.000619
vt 0.000406 0.000724
vt 0.000425 0.000464
vt 0.000496 0.000505
vt 0.000280 0.000633
vt 0.000297 0.000495
vt 0.000297 0.000390
vt 0.000389 0.000444
vt 0.000406 0.000434
vt 0.000515 0.000495
vt 0.000406 0.000075
vt 0.000297 0.000012
vt 0.000425 0.000442
vt 0.000297 0.000616
vt 0.000297 0.000539
vt 0.000363 0.000578
vt 0.000188 0.000831
vt 0.000079 0.000894
vt 0.000290 0.000512
vt 0.000297 0.000508
vt 0.000664 0.000052
vt 0.000649 0.000045
vt 0.000649 0.000012
vt 0.000297 0.000664
vt 0.000387 0.000716
vt 0.000278 0.000505
vt 0.000012 0.314350
vt 0.000012 0.264636
vt 0.000012 0.500000
vt 0.000012 0.250006
vt 0.000012 0.000012
vt 0.000012 0.999988
vt 0.000012 0.735364
vt 0.000012 0.749993
vt 0.000012 0.685649
vt 0.000534 0.000653
vt 0.000534 0.000631
vt 0.000278 0.000527
vt 0.000649 0.000061
vt 0.000317 0.000655
vt 0.000388 0.000466
vt 0.000424 0.000692
vt 0.000495 0.000503
s 1
usemtl マテリアル
f 1/1/1 12/2/1 11/3/1
f 2/4/2 12/5/2 14/6/2
f 1/7/3 11/8/3 16/9/3
f 1/10/4 16/11/4 18/12/4
f 1/13/5 18/14/5 15/15/5
f 2/4/6 14/6/6 21/16/6
f 3/17/7 13/18/7 23/19/7
f 4/20/8 17/21/8 25/22/8
f 41/23/9 55/24/9 67/25/9
f 59/26/10 50/27/10 65/28/10
f 2/4/11 21/16/11 24/29/11
f 3/17/12 23/19/12 26/30/12
f 77/22/13 80/31/13 78/20/13
f 60/32/14 64/33/14 45/34/14
f 22/35/15 61/36/15 35/37/15
f 6/38/16 31/39/16 87/40/16
f 7/41/17 32/42/17 86/43/17
f 8/44/18 33/45/18 85/46/18
f 48/47/19 84/48/19 35/37/19
f 10/49/20 35/37/20 83/50/20
f 83/50/21 35/37/21 84/48/21
f 52/51/22 5/52/22 15/15/22
f 20/25/23 9/53/23 29/28/23
f 74/54/24 85/55/24 84/56/24
f 85/46/25 33/45/25 86/57/25
f 33/45/26 7/58/26 86/57/26
f 86/43/27 32/42/27 87/59/27
f 32/42/28 6/38/28 87/59/28
f 87/40/29 31/39/29 83/60/29
f 31/39/30 10/49/30 83/60/30
f 22/35/31 35/37/31 10/49/31
f 73/61/32 8/44/32 85/55/32
f 69/62/33 70/63/33 46/64/33
f 46/64/34 70/63/34 74/54/34
f 5/52/35 62/65/35 22/35/35
f 68/53/36 54/66/36 71/67/36
f 28/31/37 33/45/37 8/44/37
f 75/35/38 79/16/38 82/6/38
f 25/22/39 7/58/39 33/45/39
f 26/30/40 32/42/40 7/41/40
f 26/30/41 23/19/41 32/42/41
f 23/19/42 6/38/42 32/42/42
f 24/29/43 31/39/43 6/38/43
f 24/29/44 21/16/44 31/39/44
f 21/16/45 10/49/45 31/39/45
f 48/47/46 61/36/46 45/34/46
f 15/15/47 53/68/47 52/51/47
f 44/69/48 19/70/48 56/71/48
f 56/71/49 28/31/49 57/72/49
f 8/44/50 72/73/50 71/67/50
f 19/70/51 4/20/51 28/31/51
f 25/22/52 26/74/52 7/58/52
f 25/22/53 17/21/53 26/74/53
f 17/21/54 3/75/54 26/74/54
f 23/19/55 24/29/55 6/38/55
f 23/19/56 13/18/56 24/29/56
f 13/18/57 2/4/57 24/29/57
f 14/6/58 79/16/58 21/16/58
f 4/20/59 77/22/59 78/20/59
f 14/6/60 5/52/60 22/35/60
f 59/26/61 5/52/61 50/27/61
f 57/72/62 8/44/62 58/76/62
f 49/77/63 42/78/63 66/79/63
f 42/78/64 49/77/64 53/68/64
f 18/12/65 16/11/65 19/70/65
f 16/11/66 4/20/66 19/70/66
f 16/9/67 17/21/67 4/20/67
f 16/9/68 11/8/68 17/21/68
f 11/8/69 3/75/69 17/21/69
f 14/6/70 15/80/70 5/52/70
f 14/6/71 12/5/71 15/80/71
f 12/5/72 1/81/72 15/80/72
f 11/3/73 13/18/73 3/17/73
f 11/3/74 12/2/74 13/18/74
f 12/2/75 2/4/75 13/18/75
f 42/82/76 44/69/76 41/83/76
f 46/84/77 48/85/77 45/86/77
f 51/87/78 52/51/78 53/68/78
f 56/71/79 57/72/79 58/76/79
f 61/36/80 62/65/80 63/88/80
f 67/25/81 9/53/81 20/25/81
f 72/73/82 73/61/82 74/54/82
f 69/62/83 45/34/83 64/33/83
f 41/23/84 66/79/84 42/78/84
f 71/67/85 69/62/85 68/53/85
f 67/25/86 54/66/86 68/53/86
f 59/26/87 64/33/87 60/32/87
f 50/27/88 66/79/88 65/28/88
f 18/12/89 44/69/89 43/89/89
f 66/79/90 29/28/90 65/28/90
f 69/62/91 30/33/91 34/62/91
f 69/62/92 9/53/92 68/53/92
f 66/79/93 20/25/93 27/79/93
f 64/33/94 29/28/94 30/33/94
f 28/31/95 81/45/95 33/45/95
f 10/49/96 79/16/96 76/49/96
f 22/35/97 82/6/97 14/6/97
f 22/35/98 76/49/98 75/35/98
f 33/45/99 77/22/99 25/22/99
f 28/31/100 78/20/100 80/31/100
f 40/90/101 90/91/101 89/90/101
f 40/90/102 83/92/102 84/93/102
f 40/90/102 85/94/102 39/91/102
f 39/91/102 86/95/102 38/96/102
f 38/96/102 87/97/102 36/98/102
f 37/92/102 87/97/102 83/92/102
f 89/90/103 90/91/103 91/96/103
f 37/92/104 92/98/104 36/98/104
f 39/91/105 91/96/105 90/91/105
f 40/90/106 88/92/106 37/92/106
f 38/96/107 92/98/107 91/96/107
f 77/22/108 81/45/108 80/31/108
f 22/35/15 62/65/15 61/36/15
f 48/47/19 47/99/19 84/48/19
f 52/51/22 51/87/22 5/52/22
f 34/62/109 30/33/109 9/53/109
f 30/33/109 29/28/109 9/53/109
f 29/28/23 27/79/23 20/25/23
f 74/54/24 73/61/24 85/55/24
f 73/61/32 72/73/32 8/44/32
f 84/56/34 47/100/34 74/54/34
f 47/100/34 46/64/34 74/54/34
f 5/52/35 63/88/35 62/65/35
f 75/35/110 76/49/110 79/16/110
f 35/37/46 61/36/46 48/47/46
f 61/36/46 60/32/46 45/34/46
f 15/15/47 18/14/47 53/68/47
f 55/24/48 41/23/48 56/71/48
f 41/23/48 44/69/48 56/71/48
f 56/71/49 19/70/49 28/31/49
f 71/67/50 54/66/50 8/44/50
f 54/66/50 58/76/50 8/44/50
f 14/6/111 82/6/111 79/16/111
f 4/20/112 25/22/112 77/22/112
f 63/88/61 5/52/61 59/26/61
f 5/52/61 51/87/61 50/27/61
f 57/72/62 28/31/62 8/44/62
f 53/68/64 18/14/64 43/101/64
f 43/101/64 42/78/64 53/68/64
f 42/82/76 43/89/113 44/69/76
f 46/84/77 47/102/114 48/85/77
f 53/68/115 49/77/115 50/103/115
f 50/103/116 51/87/116 53/68/116
f 58/76/117 54/66/117 56/71/117
f 54/66/118 55/104/118 56/71/118
f 63/88/119 59/26/119 61/36/119
f 59/26/120 60/105/120 61/36/120
f 67/25/121 68/53/121 9/53/121
f 74/54/122 70/63/122 71/106/122
f 71/106/123 72/73/123 74/54/123
f 69/62/83 46/64/83 45/34/83
f 41/23/84 67/25/84 66/79/84
f 71/67/85 70/63/85 69/62/85
f 67/25/86 55/24/86 54/66/86
f 59/26/87 65/28/87 64/33/87
f 50/27/88 49/77/88 66/79/88
f 18/12/89 19/70/89 44/69/89
f 66/79/124 27/79/124 29/28/124
f 69/62/125 64/33/125 30/33/125
f 69/62/126 34/62/126 9/53/126
f 66/79/127 67/25/127 20/25/127
f 64/33/128 65/28/128 29/28/128
f 28/31/95 80/31/95 81/45/95
f 10/49/129 21/16/129 79/16/129
f 22/35/97 75/35/97 82/6/97
f 22/35/98 10/49/98 76/49/98
f 33/45/130 81/45/130 77/22/130
f 28/31/100 4/20/100 78/20/100
f 40/90/101 39/91/101 90/91/101
f 40/90/102 37/92/102 83/92/102
f 40/90/102 84/93/102 85/94/102
f 39/91/102 85/94/102 86/95/102
f 38/96/102 86/95/102 87/97/102
f 37/92/102 36/98/102 87/97/102
f 92/98/131 88/92/131 91/96/131
f 88/92/103 89/90/103 91/96/103
f 37/92/132 88/92/132 92/98/132
f 39/91/105 38/96/105 91/96/105
f 40/90/133 89/90/133 88/92/133
f 38/96/134 36/98/134 92/98/134
