{
	"asset":{
		"generator":"Khronos glTF Blender I/O v4.1.63",
		"version":"2.0"
	},
	"scene":0,
	"scenes":[
		{
			"name":"Scene",
			"nodes":[
				2
			]
		}
	],
	"nodes":[
		{
			"name":"\u30dc\u30fc\u30f3"
		},
		{
			"mesh":0,
			"name":"\u5e73\u9762",
			"skin":0
		},
		{
			"children":[
				1,
				0
			],
			"name":"\u30a2\u30fc\u30de\u30c1\u30e5\u30a2"
		}
	],
	"animations":[
		{
			"channels":[
				{
					"sampler":0,
					"target":{
						"node":0,
						"path":"translation"
					}
				},
				{
					"sampler":1,
					"target":{
						"node":0,
						"path":"rotation"
					}
				},
				{
					"sampler":2,
					"target":{
						"node":0,
						"path":"scale"
					}
				}
			],
			"name":"xMove",
			"samplers":[
				{
					"input":7,
					"interpolation":"LINEAR",
					"output":8
				},
				{
					"input":9,
					"interpolation":"STEP",
					"output":10
				},
				{
					"input":9,
					"interpolation":"STEP",
					"output":11
				}
			]
		}
	],
	"meshes":[
		{
			"name":"\u5e73\u9762",
			"primitives":[
				{
					"attributes":{
						"POSITION":0,
						"NORMAL":1,
						"TEXCOORD_0":2,
						"JOINTS_0":3,
						"WEIGHTS_0":4
					},
					"indices":5
				}
			]
		}
	],
	"skins":[
		{
			"inverseBindMatrices":6,
			"joints":[
				0
			],
			"name":"\u30a2\u30fc\u30de\u30c1\u30e5\u30a2"
		}
	],
	"accessors":[
		{
			"bufferView":0,
			"componentType":5126,
			"count":4,
			"max":[
				1,
				1,
				4.371138828673793e-08
			],
			"min":[
				-1,
				-1,
				-4.371138828673793e-08
			],
			"type":"VEC3"
		},
		{
			"bufferView":1,
			"componentType":5126,
			"count":4,
			"type":"VEC3"
		},
		{
			"bufferView":2,
			"componentType":5126,
			"count":4,
			"type":"VEC2"
		},
		{
			"bufferView":3,
			"componentType":5121,
			"count":4,
			"type":"VEC4"
		},
		{
			"bufferView":4,
			"componentType":5126,
			"count":4,
			"type":"VEC4"
		},
		{
			"bufferView":5,
			"componentType":5123,
			"count":6,
			"type":"SCALAR"
		},
		{
			"bufferView":6,
			"componentType":5126,
			"count":1,
			"type":"MAT4"
		},
		{
			"bufferView":7,
			"componentType":5126,
			"count":48,
			"max":[
				2
			],
			"min":[
				0.041666666666666664
			],
			"type":"SCALAR"
		},
		{
			"bufferView":8,
			"componentType":5126,
			"count":48,
			"type":"VEC3"
		},
		{
			"bufferView":9,
			"componentType":5126,
			"count":2,
			"max":[
				2
			],
			"min":[
				0.041666666666666664
			],
			"type":"SCALAR"
		},
		{
			"bufferView":10,
			"componentType":5126,
			"count":2,
			"type":"VEC4"
		},
		{
			"bufferView":11,
			"componentType":5126,
			"count":2,
			"type":"VEC3"
		}
	],
	"bufferViews":[
		{
			"buffer":0,
			"byteLength":48,
			"byteOffset":0,
			"target":34962
		},
		{
			"buffer":0,
			"byteLength":48,
			"byteOffset":48,
			"target":34962
		},
		{
			"buffer":0,
			"byteLength":32,
			"byteOffset":96,
			"target":34962
		},
		{
			"buffer":0,
			"byteLength":16,
			"byteOffset":128,
			"target":34962
		},
		{
			"buffer":0,
			"byteLength":64,
			"byteOffset":144,
			"target":34962
		},
		{
			"buffer":0,
			"byteLength":12,
			"byteOffset":208,
			"target":34963
		},
		{
			"buffer":0,
			"byteLength":64,
			"byteOffset":220
		},
		{
			"buffer":0,
			"byteLength":192,
			"byteOffset":284
		},
		{
			"buffer":0,
			"byteLength":576,
			"byteOffset":476
		},
		{
			"buffer":0,
			"byteLength":8,
			"byteOffset":1052
		},
		{
			"buffer":0,
			"byteLength":32,
			"byteOffset":1060
		},
		{
			"buffer":0,
			"byteLength":24,
			"byteOffset":1092
		}
	],
	"buffers":[
		{
			"byteLength":1116,
			"uri":"MovePlane.bin"
		}
	]
}
