# Blender 4.1.1
# www.blender.org
mtllib Triangular_prism.mtl
o 平面
v 1.000000 0.000000 -1.000000
v -1.000000 0.000000 -1.000000
v 1.000000 0.000000 1.000000
v 1.000000 3.430313 1.000000
v 1.000000 3.430313 -1.000000
v -1.000000 3.430313 -1.000000
vn -0.0000 -1.0000 -0.0000
vn -0.0000 1.0000 -0.0000
vn -0.7071 -0.0000 0.7071
vn -0.0000 -0.0000 -1.0000
vn 1.0000 -0.0000 -0.0000
vt 1.000000 0.000000
vt 0.000000 0.000000
vt 0.000000 1.000000
s 0
f 2/1/1 1/2/1 3/3/1
f 6/1/2 4/3/2 5/2/2
f 2/1/3 3/3/3 4/3/3 6/1/3
f 1/2/4 2/1/4 6/1/4 5/2/4
f 3/3/5 1/2/5 5/2/5 4/3/5
