# Blender 4.3.2
# www.blender.org
mtllib objectCylinder.mtl
o 円柱
v -0.000000 -1.677471 1.000000
v -0.000000 1.677471 1.000000
v -0.195090 -1.677471 0.980785
v -0.195090 1.677471 0.980785
v -0.382683 -1.677471 0.923880
v -0.382683 1.677471 0.923880
v -0.555570 -1.677471 0.831470
v -0.555570 1.677471 0.831470
v -0.707107 -1.677471 0.707107
v -0.707107 1.677471 0.707107
v -0.831470 -1.677471 0.555570
v -0.831470 1.677471 0.555570
v -0.923880 -1.677471 0.382683
v -0.923880 1.677471 0.382683
v -0.980785 -1.677471 0.195090
v -0.980785 1.677471 0.195090
v -1.000000 -1.677471 0.000000
v -1.000000 1.677471 -0.000000
v -0.980785 -1.677471 -0.195090
v -0.980785 1.677471 -0.195090
v -0.923880 -1.677471 -0.382683
v -0.923880 1.677471 -0.382683
v -0.831470 -1.677471 -0.555570
v -0.831470 1.677471 -0.555570
v -0.707107 -1.677471 -0.707107
v -0.707107 1.677471 -0.707107
v -0.555570 -1.677471 -0.831470
v -0.555570 1.677471 -0.831470
v -0.382683 -1.677471 -0.923880
v -0.382683 1.677471 -0.923880
v -0.195090 -1.677471 -0.980785
v -0.195090 1.677471 -0.980785
v 0.000000 -1.677471 -1.000000
v 0.000000 1.677471 -1.000000
v 0.195090 -1.677471 -0.980785
v 0.195090 1.677471 -0.980785
v 0.382683 -1.677471 -0.923880
v 0.382683 1.677471 -0.923880
v 0.555570 -1.677471 -0.831470
v 0.555570 1.677471 -0.831470
v 0.707107 -1.677471 -0.707107
v 0.707107 1.677471 -0.707107
v 0.831470 -1.677471 -0.555570
v 0.831470 1.677471 -0.555570
v 0.923880 -1.677471 -0.382683
v 0.923880 1.677471 -0.382683
v 0.980785 -1.677471 -0.195090
v 0.980785 1.677471 -0.195090
v 1.000000 -1.677471 0.000000
v 1.000000 1.677471 -0.000000
v 0.980785 -1.677471 0.195090
v 0.980785 1.677471 0.195090
v 0.923880 -1.677471 0.382683
v 0.923880 1.677471 0.382683
v 0.831470 -1.677471 0.555570
v 0.831470 1.677471 0.555570
v 0.707107 -1.677471 0.707107
v 0.707107 1.677471 0.707107
v 0.555570 -1.677471 0.831470
v 0.555570 1.677471 0.831470
v 0.382683 -1.677471 0.923880
v 0.382683 1.677471 0.923880
v 0.195090 -1.677471 0.980785
v 0.195090 1.677471 0.980785
vn -0.0980 -0.0000 0.9952
vn -0.2903 -0.0000 0.9569
vn -0.4714 -0.0000 0.8819
vn -0.6344 -0.0000 0.7730
vn -0.7730 -0.0000 0.6344
vn -0.8819 -0.0000 0.4714
vn -0.9569 -0.0000 0.2903
vn -0.9952 -0.0000 0.0980
vn -0.9952 -0.0000 -0.0980
vn -0.9569 -0.0000 -0.2903
vn -0.8819 -0.0000 -0.4714
vn -0.7730 -0.0000 -0.6344
vn -0.6344 -0.0000 -0.7730
vn -0.4714 -0.0000 -0.8819
vn -0.2903 -0.0000 -0.9569
vn -0.0980 -0.0000 -0.9952
vn 0.0980 -0.0000 -0.9952
vn 0.2903 -0.0000 -0.9569
vn 0.4714 -0.0000 -0.8819
vn 0.6344 -0.0000 -0.7730
vn 0.7730 -0.0000 -0.6344
vn 0.8819 -0.0000 -0.4714
vn 0.9569 -0.0000 -0.2903
vn 0.9952 -0.0000 -0.0980
vn 0.9952 -0.0000 0.0980
vn 0.9569 -0.0000 0.2903
vn 0.8819 -0.0000 0.4714
vn 0.7730 -0.0000 0.6344
vn 0.6344 -0.0000 0.7730
vn 0.4714 -0.0000 0.8819
vn -0.0000 1.0000 -0.0000
vn 0.2903 -0.0000 0.9569
vn 0.0980 -0.0000 0.9952
vn -0.0000 -1.0000 -0.0000
vt 0.500000 0.012867
vt 0.012867 0.043313
vt 0.012867 0.012867
vt 0.500000 0.043313
vt 0.012867 0.073759
vt 0.500000 0.073759
vt 0.012867 0.104204
vt 0.500000 0.104204
vt 0.012867 0.134650
vt 0.500000 0.134650
vt 0.012867 0.165096
vt 0.500000 0.165096
vt 0.012867 0.195542
vt 0.500000 0.195542
vt 0.012867 0.225988
vt 0.500000 0.225988
vt 0.012867 0.256433
vt 0.500000 0.256433
vt 0.012867 0.286879
vt 0.500000 0.286879
vt 0.012867 0.317325
vt 0.500000 0.317325
vt 0.012867 0.347771
vt 0.500000 0.347771
vt 0.012867 0.378217
vt 0.500000 0.378217
vt 0.012867 0.408663
vt 0.500000 0.408663
vt 0.012867 0.439108
vt 0.500000 0.439108
vt 0.012867 0.469554
vt 0.500000 0.469554
vt 0.012867 0.500000
vt 0.500000 0.500000
vt 0.012867 0.530446
vt 0.500000 0.530446
vt 0.012867 0.560892
vt 0.500000 0.560892
vt 0.012867 0.591338
vt 0.500000 0.591338
vt 0.012867 0.621783
vt 0.500000 0.621783
vt 0.012867 0.652229
vt 0.500000 0.652229
vt 0.012867 0.682675
vt 0.500000 0.682675
vt 0.012867 0.713121
vt 0.500000 0.713121
vt 0.012867 0.743567
vt 0.500000 0.743567
vt 0.012867 0.774012
vt 0.500000 0.774012
vt 0.012867 0.804458
vt 0.500000 0.804458
vt 0.012867 0.834904
vt 0.500000 0.834904
vt 0.012867 0.865350
vt 0.500000 0.865350
vt 0.012867 0.895796
vt 0.500000 0.895796
vt 0.012867 0.926242
vt 0.559097 0.257578
vt 0.579914 0.046230
vt 0.791261 0.067047
vt 0.500000 0.926242
vt 0.012867 0.956687
vt 0.500000 0.956687
vt 0.012867 0.987133
vt 0.718772 0.343235
vt 0.531478 0.443344
vt 0.631586 0.630639
vt 0.807616 0.091524
vt 0.818882 0.118721
vt 0.824625 0.147594
vt 0.824625 0.177032
vt 0.818882 0.205904
vt 0.807616 0.233102
vt 0.791261 0.257579
vt 0.770445 0.278394
vt 0.745968 0.294749
vt 0.718770 0.306015
vt 0.689898 0.311758
vt 0.660460 0.311758
vt 0.631587 0.306015
vt 0.604390 0.294749
vt 0.579913 0.278394
vt 0.542742 0.233101
vt 0.525734 0.147593
vt 0.531477 0.205904
vt 0.525734 0.177031
vt 0.531477 0.118720
vt 0.542742 0.091523
vt 0.559098 0.067046
vt 0.604391 0.029876
vt 0.689899 0.012867
vt 0.631588 0.018610
vt 0.660461 0.012867
vt 0.718771 0.018610
vt 0.745969 0.029875
vt 0.770446 0.046231
vt 0.500000 0.987133
vt 0.660459 0.636382
vt 0.689897 0.636382
vt 0.718769 0.630640
vt 0.745967 0.619375
vt 0.770444 0.603020
vt 0.791260 0.582204
vt 0.807615 0.557727
vt 0.818881 0.530530
vt 0.824625 0.501657
vt 0.824625 0.472219
vt 0.818882 0.443347
vt 0.807617 0.416149
vt 0.791262 0.391672
vt 0.770446 0.370856
vt 0.745969 0.354501
vt 0.689900 0.337492
vt 0.660461 0.337492
vt 0.631589 0.343234
vt 0.604391 0.354499
vt 0.579914 0.370854
vt 0.559098 0.391670
vt 0.542743 0.416147
vt 0.525734 0.472216
vt 0.525734 0.501655
vt 0.531476 0.530527
vt 0.542741 0.557725
vt 0.559096 0.582202
vt 0.579912 0.603018
vt 0.604389 0.619373
s 1
usemtl マテリアル
f 2/1/1 3/2/1 1/3/1
f 4/4/2 5/5/2 3/2/2
f 6/6/3 7/7/3 5/5/3
f 8/8/4 9/9/4 7/7/4
f 10/10/5 11/11/5 9/9/5
f 12/12/6 13/13/6 11/11/6
f 14/14/7 15/15/7 13/13/7
f 16/16/8 17/17/8 15/15/8
f 18/18/9 19/19/9 17/17/9
f 20/20/10 21/21/10 19/19/10
f 22/22/11 23/23/11 21/21/11
f 24/24/12 25/25/12 23/23/12
f 26/26/13 27/27/13 25/25/13
f 28/28/14 29/29/14 27/27/14
f 30/30/15 31/31/15 29/29/15
f 32/32/16 33/33/16 31/31/16
f 34/34/17 35/35/17 33/33/17
f 36/36/18 37/37/18 35/35/18
f 38/38/19 39/39/19 37/37/19
f 40/40/20 41/41/20 39/39/20
f 42/42/21 43/43/21 41/41/21
f 44/44/22 45/45/22 43/43/22
f 46/46/23 47/47/23 45/45/23
f 48/48/24 49/49/24 47/47/24
f 50/50/25 51/51/25 49/49/25
f 52/52/26 53/53/26 51/51/26
f 54/54/27 55/55/27 53/53/27
f 56/56/28 57/57/28 55/55/28
f 58/58/29 59/59/29 57/57/29
f 60/60/30 61/61/30 59/59/30
f 38/62/31 22/63/31 6/64/31
f 62/65/32 63/66/32 61/61/32
f 64/67/33 1/68/33 63/66/33
f 31/69/34 47/70/34 63/71/34
f 2/1/1 4/4/1 3/2/1
f 4/4/2 6/6/2 5/5/2
f 6/6/3 8/8/3 7/7/3
f 8/8/4 10/10/4 9/9/4
f 10/10/5 12/12/5 11/11/5
f 12/12/6 14/14/6 13/13/6
f 14/14/7 16/16/7 15/15/7
f 16/16/8 18/18/8 17/17/8
f 18/18/9 20/20/9 19/19/9
f 20/20/10 22/22/10 21/21/10
f 22/22/11 24/24/11 23/23/11
f 24/24/12 26/26/12 25/25/12
f 26/26/13 28/28/13 27/27/13
f 28/28/14 30/30/14 29/29/14
f 30/30/15 32/32/15 31/31/15
f 32/32/16 34/34/16 33/33/16
f 34/34/17 36/36/17 35/35/17
f 36/36/18 38/38/18 37/37/18
f 38/38/19 40/40/19 39/39/19
f 40/40/20 42/42/20 41/41/20
f 42/42/21 44/44/21 43/43/21
f 44/44/22 46/46/22 45/45/22
f 46/46/23 48/48/23 47/47/23
f 48/48/24 50/50/24 49/49/24
f 50/50/25 52/52/25 51/51/25
f 52/52/26 54/54/26 53/53/26
f 54/54/27 56/56/27 55/55/27
f 56/56/28 58/58/28 57/57/28
f 58/58/29 60/60/29 59/59/29
f 60/60/30 62/65/30 61/61/30
f 6/64/31 4/72/31 2/73/31
f 2/73/31 64/74/31 6/64/31
f 64/74/31 62/75/31 6/64/31
f 62/75/31 60/76/31 58/77/31
f 58/77/31 56/78/31 54/79/31
f 54/79/31 52/80/31 50/81/31
f 50/81/31 48/82/31 54/79/31
f 48/82/31 46/83/31 54/79/31
f 46/83/31 44/84/31 42/85/31
f 42/85/31 40/86/31 38/62/31
f 38/62/31 36/87/31 30/88/31
f 36/87/31 34/89/31 30/88/31
f 34/89/31 32/90/31 30/88/31
f 30/88/31 28/91/31 26/92/31
f 26/92/31 24/93/31 22/63/31
f 22/63/31 20/94/31 14/95/31
f 20/94/31 18/96/31 14/95/31
f 18/96/31 16/97/31 14/95/31
f 14/95/31 12/98/31 10/99/31
f 10/99/31 8/100/31 6/64/31
f 62/75/31 58/77/31 6/64/31
f 58/77/31 54/79/31 6/64/31
f 46/83/31 42/85/31 54/79/31
f 42/85/31 38/62/31 54/79/31
f 30/88/31 26/92/31 38/62/31
f 26/92/31 22/63/31 38/62/31
f 14/95/31 10/99/31 22/63/31
f 10/99/31 6/64/31 22/63/31
f 6/64/31 54/79/31 38/62/31
f 62/65/32 64/67/32 63/66/32
f 64/67/33 2/101/33 1/68/33
f 63/71/34 1/102/34 3/103/34
f 3/103/34 5/104/34 7/105/34
f 7/105/34 9/106/34 11/107/34
f 11/107/34 13/108/34 15/109/34
f 15/109/34 17/110/34 19/111/34
f 19/111/34 21/112/34 23/113/34
f 23/113/34 25/114/34 27/115/34
f 27/115/34 29/116/34 31/69/34
f 31/69/34 33/117/34 35/118/34
f 35/118/34 37/119/34 39/120/34
f 39/120/34 41/121/34 43/122/34
f 43/122/34 45/123/34 47/70/34
f 47/70/34 49/124/34 51/125/34
f 51/125/34 53/126/34 55/127/34
f 55/127/34 57/128/34 59/129/34
f 59/129/34 61/130/34 63/71/34
f 63/71/34 3/103/34 15/109/34
f 3/103/34 7/105/34 15/109/34
f 7/105/34 11/107/34 15/109/34
f 15/109/34 19/111/34 31/69/34
f 19/111/34 23/113/34 31/69/34
f 23/113/34 27/115/34 31/69/34
f 31/69/34 35/118/34 47/70/34
f 35/118/34 39/120/34 47/70/34
f 39/120/34 43/122/34 47/70/34
f 47/70/34 51/125/34 63/71/34
f 51/125/34 55/127/34 63/71/34
f 55/127/34 59/129/34 63/71/34
f 63/71/34 15/109/34 31/69/34
